<svg width="14" height="18" viewBox="0 0 14 18" fill="none" xmlns="http://www.w3.org/2000/svg">
<path d="M5.57933 0C7.97047 0 9.76383 0.298893 10.9594 0.996309C12.2546 1.69373 12.8524 2.8893 12.8524 4.58302C12.8524 5.57933 12.5535 6.47601 12.155 7.17342C11.9291 7.5141 11.6357 7.80481 11.2929 8.02759C10.9502 8.25036 10.5654 8.40047 10.1624 8.46863C10.7319 8.60166 11.2722 8.83805 11.7564 9.16604C12.155 9.46494 12.5535 9.96309 12.8524 10.4612C13.1642 11.1829 13.3007 11.9682 13.2509 12.7528C13.2861 13.4725 13.1511 14.1905 12.8568 14.8483C12.5625 15.5061 12.1173 16.0853 11.5572 16.5387C10.1389 17.5517 8.41461 18.0443 6.67527 17.9336H0V0H5.57933ZM5.97785 7.07379C7.07379 7.07379 7.87084 6.97416 8.26936 6.57564C8.76752 6.27675 8.96678 5.67896 8.96678 5.08118C8.96678 4.38376 8.66789 3.88561 8.16973 3.58671C7.67158 3.28782 6.87453 3.08856 5.77859 3.08856H3.78597V7.07379H5.97785ZM3.78597 10.0627V14.9446H6.27675C7.37269 14.9446 8.26936 14.6457 8.66789 14.2472C9.16604 13.7491 9.3653 13.2509 9.3653 12.4539C9.37718 12.1527 9.32059 11.8528 9.19979 11.5767C9.07898 11.3006 8.89712 11.0554 8.66789 10.8598C8.16973 10.4612 7.37269 10.262 6.17712 10.262H3.68634L3.78597 10.0627Z" fill="black"/>
</svg>
