<svg width="20" height="20" viewBox="0 0 20 20" fill="none" xmlns="http://www.w3.org/2000/svg">
<path d="M8.86742 0.989014C11.2586 0.989014 13.0519 1.28791 14.2475 1.98532C15.5427 2.68274 16.1405 3.87831 16.1405 5.57204C16.1405 6.56834 15.8416 7.46502 15.4431 8.16244C15.2171 8.50311 14.9237 8.79382 14.581 9.0166C14.2383 9.23938 13.8535 9.38948 13.4504 9.45764C14.02 9.59068 14.5603 9.82706 15.0445 10.1551C15.4431 10.4539 15.8416 10.9521 16.1405 11.4503C16.4523 12.1719 16.5888 12.9572 16.539 13.7418C16.5742 14.4616 16.4392 15.1795 16.1449 15.8373C15.8506 16.4951 15.4054 17.0743 14.8453 17.5277C13.427 18.5407 11.7027 19.0333 9.96336 18.9226H3.28809V0.989014H8.86742ZM9.26594 8.06281C10.3619 8.06281 11.1589 7.96318 11.5575 7.56465C12.0556 7.26576 12.2549 6.66797 12.2549 6.07019C12.2549 5.37277 11.956 4.87462 11.4578 4.57573C10.9597 4.27683 10.1626 4.07757 9.06668 4.07757H7.07406V8.06281H9.26594ZM7.07406 11.0517V15.9336H9.56483C10.6608 15.9336 11.5575 15.6348 11.956 15.2362C12.4541 14.7381 12.6534 14.2399 12.6534 13.4429C12.6653 13.1417 12.6087 12.8418 12.4879 12.5657C12.3671 12.2896 12.1852 12.0444 11.956 11.8488C11.4578 11.4503 10.6608 11.251 9.4652 11.251H6.97443L7.07406 11.0517Z" fill="white"/>
</svg>
