<svg width="27" height="26" viewBox="0 0 27 26" fill="none" xmlns="http://www.w3.org/2000/svg">
<path d="M16.5653 10.6133C17.1739 10.4108 17.8316 10.4108 18.4401 10.6133C18.8373 10.7461 19.1655 10.9782 19.4839 11.2566C19.7882 11.5243 20.1336 11.8816 20.547 12.309C21.0406 12.822 21.535 13.3343 22.03 13.8459C22.5136 14.3446 22.7078 14.8713 22.7057 15.575C22.6992 17.3657 22.6614 18.5939 22.1477 19.601C21.6559 20.5653 20.8716 21.3493 19.907 21.8406C18.4553 22.581 16.5988 22.3997 15.0251 22.3997H11.5C10.3214 22.3997 9.38669 22.3997 8.63439 22.3382C7.86374 22.2755 7.21291 22.1439 6.61819 21.8417C5.65342 21.3501 4.86904 20.5657 4.37749 19.601C4.05909 18.976 3.93497 18.296 3.87021 17.4682C3.77522 16.2162 4.83729 15.2027 5.65435 14.3791C5.9857 14.0445 6.33541 13.7639 6.7693 13.6042C7.4276 13.3634 8.14986 13.3634 8.80816 13.6042C9.24205 13.7639 9.59176 14.0445 9.92312 14.3791C10.2448 14.7029 10.6053 15.1347 11.0413 15.6581C11.0791 15.7046 11.1384 15.7477 11.1935 15.6905L14.4585 12.309C14.8729 11.8816 15.2173 11.5243 15.5216 11.2566C15.84 10.9782 16.1692 10.7461 16.5653 10.6133ZM16.5902 12.473C16.3419 12.6911 16.0429 12.9997 15.6004 13.4585L12.3581 16.8152C12.1917 16.9876 11.9909 17.123 11.7688 17.2126C11.5466 17.3022 11.308 17.344 11.0686 17.3352C10.8292 17.3264 10.5943 17.2673 10.3793 17.1617C10.1643 17.0562 9.97389 16.9064 9.82058 16.7224C9.35538 16.1654 9.03914 15.7866 8.77362 15.52C8.51458 15.2577 8.36348 15.166 8.2523 15.125C7.95296 15.0154 7.6245 15.0154 7.32516 15.125C7.21399 15.166 7.06396 15.2577 6.80384 15.52C6.40448 15.9215 6.05154 16.3694 5.68996 16.8044C5.51619 17.0127 5.4687 17.1228 5.48813 17.3872C5.5421 18.0953 5.64679 18.5259 5.81948 18.8659C6.15576 19.5258 6.69227 20.0623 7.35214 20.3986C7.68134 20.5659 8.09688 20.6695 8.76607 20.7245C9.44605 20.7796 10.3138 20.7807 11.5356 20.7807H14.9895C16.2761 20.7807 17.9739 21.0095 19.173 20.3986C19.8329 20.0623 20.3694 19.5258 20.7057 18.8659C21.01 18.2669 21.0791 17.4596 21.0867 15.5696C21.0878 15.2739 21.0424 15.153 20.8298 14.9339L19.4051 13.4585C18.9625 12.9997 18.6646 12.6921 18.4153 12.473C17.8595 11.9852 17.1698 11.9636 16.5902 12.473Z" fill="white"/>
<path d="M11.5 3.51123H15.0251C16.2037 3.51123 17.1384 3.51123 17.8907 3.57275C18.6614 3.63535 19.3122 3.76703 19.908 4.06925C20.8725 4.56126 21.6565 5.34601 22.1476 6.31102C22.4509 6.90466 22.5826 7.55658 22.6452 8.32722C22.7067 9.07952 22.7067 10.0142 22.7067 11.1929V14.718C22.7067 15.8966 22.7067 16.8313 22.6452 17.5836C22.5826 18.3542 22.4509 19.0051 22.1487 19.6009C21.6567 20.5654 20.8719 21.3494 19.9069 21.8405C19.3133 22.1438 18.6614 22.2755 17.8907 22.3381C17.1384 22.3996 16.2037 22.3996 15.0251 22.3996H11.5C10.3214 22.3996 9.38665 22.3996 8.63435 22.3381C7.86371 22.2755 7.21287 22.1438 6.61815 21.8416C5.65338 21.35 4.869 20.5657 4.37745 19.6009C4.07416 19.0051 3.94248 18.3542 3.87988 17.5836C3.81836 16.8313 3.81836 15.8966 3.81836 14.718V11.1929C3.81836 10.0142 3.81836 9.07952 3.87988 8.32722C3.94248 7.55658 4.07416 6.90574 4.37638 6.31102C4.8682 5.34609 5.65298 4.56169 6.61815 4.07033C7.21179 3.76703 7.86371 3.63535 8.63435 3.57275C9.38665 3.51123 10.3214 3.51123 11.5 3.51123ZM8.76603 5.18636C8.09684 5.24032 7.6813 5.34502 7.3521 5.51232C6.69223 5.8486 6.15573 6.3851 5.81945 7.04497C5.65215 7.37417 5.54853 7.78971 5.49349 8.4589C5.43844 9.13888 5.43736 10.0067 5.43736 11.2285V14.6823C5.43736 15.9052 5.43736 16.773 5.49349 17.4519C5.54745 18.1211 5.65215 18.5367 5.81945 18.8658C6.15573 19.5257 6.69223 20.0622 7.3521 20.3985C7.6813 20.5658 8.09684 20.6694 8.76603 20.7245C9.44601 20.7795 10.3138 20.7806 11.5356 20.7806H14.9895C16.2124 20.7806 17.0801 20.7806 17.759 20.7245C18.4282 20.6705 18.8438 20.5658 19.173 20.3985C19.8328 20.0622 20.3694 19.5257 20.7056 18.8658C20.8729 18.5367 20.9765 18.1211 21.0316 17.4519C21.0866 16.7719 21.0877 15.9042 21.0877 14.6823V11.2285C21.0877 10.0067 21.0877 9.1378 21.0316 8.4589C20.9776 7.78971 20.8729 7.37417 20.7056 7.04497C20.3694 6.3851 19.8328 5.8486 19.173 5.51232C18.8438 5.34502 18.4282 5.2414 17.759 5.18636C17.0791 5.13131 16.2113 5.13023 14.9895 5.13023H11.5356C10.3138 5.13023 9.44493 5.13023 8.76603 5.18636Z" fill="white"/>
<path d="M11.1039 8.36827C10.7461 8.36827 10.4029 8.51041 10.1499 8.76343C9.89689 9.01645 9.75474 9.35962 9.75474 9.71744C9.75474 10.0753 9.89689 10.4184 10.1499 10.6714C10.4029 10.9245 10.7461 11.0666 11.1039 11.0666C11.4617 11.0666 11.8049 10.9245 12.0579 10.6714C12.3109 10.4184 12.4531 10.0753 12.4531 9.71744C12.4531 9.35962 12.3109 9.01645 12.0579 8.76343C11.8049 8.51041 11.4617 8.36827 11.1039 8.36827ZM8.13574 9.71744C8.13574 8.93023 8.44846 8.17526 9.0051 7.61862C9.56174 7.06198 10.3167 6.74927 11.1039 6.74927C11.8911 6.74927 12.6461 7.06198 13.2027 7.61862C13.7594 8.17526 14.0721 8.93023 14.0721 9.71744C14.0721 10.5046 13.7594 11.2596 13.2027 11.8163C12.6461 12.3729 11.8911 12.6856 11.1039 12.6856C10.3167 12.6856 9.56174 12.3729 9.0051 11.8163C8.44846 11.2596 8.13574 10.5046 8.13574 9.71744Z" fill="white"/>
</svg>
