<svg width="19" height="19" viewBox="0 0 19 19" fill="none" xmlns="http://www.w3.org/2000/svg">
<path d="M1.16602 7.90831C1.16602 6.65518 1.16602 6.02914 1.47747 5.52602C1.78789 5.02185 2.34831 4.74164 3.46914 4.18227L7.63581 2.09893C8.55039 1.6406 9.00768 1.41248 9.49935 1.41248C9.99102 1.41248 10.4483 1.64164 11.3629 2.09789L15.5296 4.18123C16.6504 4.74164 17.2108 5.02185 17.5212 5.52498C17.8327 6.03018 17.8327 6.65623 17.8327 7.90935V13.6666C17.8327 15.6312 17.8327 16.6125 17.2223 17.2229C16.6118 17.8333 15.6306 17.8333 13.666 17.8333H5.33268C3.3681 17.8333 2.38685 17.8333 1.77643 17.2229C1.16602 16.6125 1.16602 15.6312 1.16602 13.6666V7.90831Z" stroke="#1E1E1E" stroke-width="2"/>
<path d="M1.16602 7.41663L3.6806 9.93121C4.07121 10.3219 4.60103 10.5415 5.15352 10.5416H13.8452C14.3977 10.5415 14.9275 10.3219 15.3181 9.93121L17.8327 7.41663" stroke="#1E1E1E" stroke-width="2" stroke-linecap="round"/>
</svg>
