<svg width="26" height="26" viewBox="0 0 26 26" fill="none" xmlns="http://www.w3.org/2000/svg">
<path d="M16.2548 10.6099C16.8633 10.4074 17.5211 10.4074 18.1296 10.6099C18.5268 10.7427 18.8549 10.9747 19.1733 11.2532C19.4777 11.5209 19.8231 11.8781 20.2365 12.3056C20.7301 12.8186 21.2244 13.3309 21.7195 13.8425C22.203 14.3412 22.3973 14.8679 22.3951 15.5716C22.3887 17.3622 22.3509 18.5905 21.8371 19.5975C21.3454 20.5619 20.561 21.3459 19.5964 21.8372C18.1447 22.5776 16.2883 22.3963 14.7146 22.3963H11.1895C10.0108 22.3963 9.07614 22.3963 8.32384 22.3347C7.5532 22.2721 6.90236 22.1405 6.30765 21.8382C5.34287 21.3467 4.55849 20.5623 4.06695 19.5975C3.74854 18.9726 3.62442 18.2926 3.55966 17.4648C3.46468 16.2127 4.52674 15.1993 5.3438 14.3757C5.67516 14.0411 6.02486 13.7605 6.45875 13.6008C7.11705 13.36 7.83931 13.36 8.49762 13.6008C8.93151 13.7605 9.28121 14.0411 9.61257 14.3757C9.93421 14.6995 10.2947 15.1313 10.7308 15.6547C10.7685 15.7011 10.8279 15.7443 10.8829 15.6871L14.1479 12.3056C14.5624 11.8781 14.9067 11.5209 15.2111 11.2532C15.5295 10.9747 15.8587 10.7427 16.2548 10.6099ZM16.2796 12.4696C16.0314 12.6876 15.7324 12.9963 15.2899 13.455L12.0475 16.8118C11.8812 16.9842 11.6804 17.1196 11.4582 17.2092C11.236 17.2988 10.9975 17.3405 10.7581 17.3318C10.5187 17.323 10.2838 17.2639 10.0688 17.1583C9.85372 17.0527 9.66335 16.903 9.51003 16.719C9.04484 16.162 8.72859 15.7832 8.46308 15.5166C8.20404 15.2543 8.05293 15.1626 7.94176 15.1215C7.64241 15.012 7.31396 15.012 7.01461 15.1215C6.90344 15.1626 6.75341 15.2543 6.49329 15.5166C6.09394 15.9181 5.741 16.366 5.37942 16.801C5.20565 17.0093 5.15815 17.1194 5.17758 17.3838C5.23155 18.0919 5.33624 18.5225 5.50894 18.8625C5.84522 19.5224 6.38172 20.0589 7.04159 20.3952C7.37079 20.5625 7.78633 20.6661 8.45552 20.7211C9.1355 20.7762 10.0033 20.7773 11.2251 20.7773H14.679C15.9655 20.7773 17.6633 21.0061 18.8625 20.3952C19.5223 20.0589 20.0588 19.5224 20.3951 18.8625C20.6995 18.2635 20.7686 17.4561 20.7761 15.5662C20.7772 15.2705 20.7319 15.1496 20.5192 14.9305L19.0945 13.455C18.652 12.9963 18.3541 12.6887 18.1048 12.4696C17.5489 11.9818 16.8592 11.9602 16.2796 12.4696Z" fill="black"/>
<path d="M11.1894 3.50781H14.7145C15.8932 3.50781 16.8279 3.50781 17.5802 3.56933C18.3508 3.63194 19.0017 3.76361 19.5975 4.06583C20.562 4.55784 21.346 5.34259 21.8371 6.30761C22.1404 6.90124 22.272 7.55316 22.3347 8.3238C22.3962 9.0761 22.3962 10.0108 22.3962 11.1894V14.7145C22.3962 15.8932 22.3962 16.8279 22.3347 17.5802C22.272 18.3508 22.1404 19.0017 21.8382 19.5975C21.3461 20.562 20.5614 21.346 19.5964 21.8371C19.0027 22.1404 18.3508 22.272 17.5802 22.3347C16.8279 22.3962 15.8932 22.3962 14.7145 22.3962H11.1894C10.0108 22.3962 9.0761 22.3962 8.3238 22.3347C7.55316 22.272 6.90232 22.1404 6.30761 21.8382C5.34283 21.3466 4.55845 20.5622 4.06691 19.5975C3.76361 19.0017 3.63194 18.3508 3.56933 17.5802C3.50781 16.8279 3.50781 15.8932 3.50781 14.7145V11.1894C3.50781 10.0108 3.50781 9.0761 3.56933 8.3238C3.63194 7.55316 3.76361 6.90232 4.06583 6.30761C4.55765 5.34267 5.34243 4.55827 6.30761 4.06691C6.90124 3.76361 7.55316 3.63194 8.3238 3.56933C9.0761 3.50781 10.0108 3.50781 11.1894 3.50781ZM8.45548 5.18294C7.7863 5.23691 7.37075 5.3416 7.04155 5.5089C6.38168 5.84518 5.84518 6.38168 5.5089 7.04155C5.3416 7.37075 5.23799 7.7863 5.18294 8.45548C5.12789 9.13546 5.12681 10.0032 5.12681 11.2251V14.6789C5.12681 15.9018 5.12681 16.7696 5.18294 17.4485C5.23691 18.1177 5.3416 18.5332 5.5089 18.8624C5.84518 19.5223 6.38168 20.0588 7.04155 20.3951C7.37075 20.5624 7.7863 20.666 8.45548 20.721C9.13546 20.7761 10.0032 20.7772 11.2251 20.7772H14.6789C15.9018 20.7772 16.7696 20.7772 17.4485 20.721C18.1177 20.6671 18.5332 20.5624 18.8624 20.3951C19.5223 20.0588 20.0588 19.5223 20.3951 18.8624C20.5624 18.5332 20.666 18.1177 20.721 17.4485C20.7761 16.7685 20.7772 15.9007 20.7772 14.6789V11.2251C20.7772 10.0032 20.7772 9.13439 20.721 8.45548C20.6671 7.7863 20.5624 7.37075 20.3951 7.04155C20.0588 6.38168 19.5223 5.84518 18.8624 5.5089C18.5332 5.3416 18.1177 5.23799 17.4485 5.18294C16.7685 5.12789 15.9007 5.12681 14.6789 5.12681H11.2251C10.0032 5.12681 9.13439 5.12681 8.45548 5.18294Z" fill="black"/>
<path d="M10.7934 8.3651C10.4355 8.3651 10.0924 8.50724 9.83936 8.76026C9.58634 9.01328 9.4442 9.35644 9.4442 9.71426C9.4442 10.0721 9.58634 10.4153 9.83936 10.6683C10.0924 10.9213 10.4355 11.0634 10.7934 11.0634C11.1512 11.0634 11.4944 10.9213 11.7474 10.6683C12.0004 10.4153 12.1425 10.0721 12.1425 9.71426C12.1425 9.35644 12.0004 9.01328 11.7474 8.76026C11.4944 8.50724 11.1512 8.3651 10.7934 8.3651ZM7.8252 9.71426C7.8252 8.92706 8.13791 8.17209 8.69455 7.61545C9.25119 7.05881 10.0062 6.74609 10.7934 6.74609C11.5806 6.74609 12.3355 7.05881 12.8922 7.61545C13.4488 8.17209 13.7615 8.92706 13.7615 9.71426C13.7615 10.5015 13.4488 11.2564 12.8922 11.8131C12.3355 12.3697 11.5806 12.6824 10.7934 12.6824C10.0062 12.6824 9.25119 12.3697 8.69455 11.8131C8.13791 11.2564 7.8252 10.5015 7.8252 9.71426Z" fill="black"/>
</svg>
