<svg width="309" height="282" viewBox="0 0 309 282" fill="none" xmlns="http://www.w3.org/2000/svg">
<g filter="url(#filter0_d_165_184)">
<rect x="3" y="10" width="301" height="266" rx="5" fill="white"/>
<rect x="3.5" y="10.5" width="300" height="265" rx="4.5" stroke="black" stroke-opacity="0.2"/>
</g>
<path d="M280 0L287.794 12.75H272.206L280 0Z" fill="white"/>
<path d="M286.902 12.25H273.098L280 0.958008L286.902 12.25Z" stroke="black" stroke-opacity="0.2"/>
<line x1="272" y1="12.25" x2="287.8" y2="12.25" stroke="white" stroke-width="1.5" stroke-linejoin="round"/>
<path d="M48.896 42H46.8L41.024 32.768H40.96C40.9707 32.9813 40.9813 33.2107 40.992 33.456C41.0133 33.7013 41.0293 33.9627 41.04 34.24C41.0507 34.5067 41.0613 34.784 41.072 35.072C41.0827 35.3493 41.088 35.632 41.088 35.92V42H39.52V30.576H41.6L47.36 39.76H47.408C47.3973 39.6 47.3867 39.4027 47.376 39.168C47.3653 38.9227 47.3547 38.6613 47.344 38.384C47.344 38.1067 47.3387 37.824 47.328 37.536C47.3173 37.248 47.3067 36.976 47.296 36.72V30.576H48.896V42ZM59.3499 37.68C59.3499 38.3947 59.2539 39.0293 59.0619 39.584C58.8699 40.1387 58.5979 40.608 58.2459 40.992C57.8939 41.376 57.4672 41.6693 56.9659 41.872C56.4645 42.064 55.8992 42.16 55.2699 42.16C54.6939 42.16 54.1605 42.064 53.6699 41.872C53.1792 41.6693 52.7525 41.376 52.3899 40.992C52.0379 40.608 51.7605 40.1387 51.5579 39.584C51.3552 39.0293 51.2539 38.3893 51.2539 37.664C51.2539 36.7147 51.4139 35.9093 51.7339 35.248C52.0645 34.5867 52.5339 34.0853 53.1419 33.744C53.7605 33.392 54.4859 33.216 55.3179 33.216C56.1072 33.216 56.8005 33.392 57.3979 33.744C58.0059 34.0853 58.4805 34.5867 58.8219 35.248C59.1739 35.9093 59.3499 36.72 59.3499 37.68ZM52.9979 37.68C52.9979 38.32 53.0779 38.8747 53.2379 39.344C53.3979 39.8027 53.6485 40.1547 53.9899 40.4C54.3312 40.6453 54.7685 40.768 55.3019 40.768C55.8352 40.768 56.2725 40.6453 56.6139 40.4C56.9552 40.1547 57.2059 39.8027 57.3659 39.344C57.5259 38.8747 57.6059 38.32 57.6059 37.68C57.6059 37.0187 57.5205 36.464 57.3499 36.016C57.1899 35.568 56.9392 35.2267 56.5979 34.992C56.2672 34.7467 55.8299 34.624 55.2859 34.624C54.4859 34.624 53.9045 34.8907 53.5419 35.424C53.1792 35.9573 52.9979 36.7093 52.9979 37.68ZM64.6039 40.784C64.8279 40.784 65.0572 40.7627 65.2919 40.72C65.5265 40.6773 65.7292 40.6293 65.8999 40.576V41.856C65.7185 41.9413 65.4732 42.0107 65.1639 42.064C64.8545 42.128 64.5452 42.16 64.2359 42.16C63.7665 42.16 63.3345 42.08 62.9399 41.92C62.5559 41.76 62.2465 41.4827 62.0119 41.088C61.7772 40.6933 61.6599 40.144 61.6599 39.44V34.672H60.4599V33.904L61.7239 33.264L62.3159 31.44H63.3559V33.376H65.8199V34.672H63.3559V39.408C63.3559 39.8773 63.4679 40.224 63.6919 40.448C63.9265 40.672 64.2305 40.784 64.6039 40.784ZM69.3209 33.376V42H67.6249V33.376H69.3209ZM68.4889 30.096C68.7449 30.096 68.9689 30.1707 69.1609 30.32C69.3529 30.4693 69.4489 30.72 69.4489 31.072C69.4489 31.4133 69.3529 31.664 69.1609 31.824C68.9689 31.9733 68.7449 32.048 68.4889 32.048C68.2115 32.048 67.9769 31.9733 67.7849 31.824C67.6035 31.664 67.5129 31.4133 67.5129 31.072C67.5129 30.72 67.6035 30.4693 67.7849 30.32C67.9769 30.1707 68.2115 30.096 68.4889 30.096ZM76.1923 34.672H74.0643V42H72.3683V34.672H70.9123V33.872L72.3683 33.344V32.8C72.3683 32.064 72.4803 31.4773 72.7043 31.04C72.9389 30.592 73.2696 30.2667 73.6963 30.064C74.1229 29.8613 74.6403 29.76 75.2483 29.76C75.6216 29.76 75.9629 29.792 76.2723 29.856C76.5816 29.92 76.8429 29.9893 77.0563 30.064L76.6243 31.36C76.4536 31.3067 76.2563 31.2587 76.0323 31.216C75.8083 31.1627 75.5736 31.136 75.3283 31.136C74.9016 31.136 74.5816 31.2747 74.3683 31.552C74.1656 31.8293 74.0643 32.2507 74.0643 32.816V33.376H76.1923V34.672ZM79.3923 33.376V42H77.6963V33.376H79.3923ZM78.5603 30.096C78.8163 30.096 79.0403 30.1707 79.2323 30.32C79.4243 30.4693 79.5203 30.72 79.5203 31.072C79.5203 31.4133 79.4243 31.664 79.2323 31.824C79.0403 31.9733 78.8163 32.048 78.5603 32.048C78.2829 32.048 78.0483 31.9733 77.8563 31.824C77.6749 31.664 77.5843 31.4133 77.5843 31.072C77.5843 30.72 77.6749 30.4693 77.8563 30.32C78.0483 30.1707 78.2829 30.096 78.5603 30.096ZM85.5188 42.16C84.7294 42.16 84.0361 42.0053 83.4388 41.696C82.8414 41.3867 82.3774 40.9067 82.0468 40.256C81.7161 39.5947 81.5508 38.7573 81.5508 37.744C81.5508 36.6773 81.7268 35.8133 82.0788 35.152C82.4414 34.4907 82.9268 34.0053 83.5348 33.696C84.1534 33.376 84.8574 33.216 85.6468 33.216C86.1268 33.216 86.5748 33.2693 86.9908 33.376C87.4174 33.472 87.7694 33.584 88.0468 33.712L87.5348 35.088C87.2361 34.9707 86.9161 34.8693 86.5748 34.784C86.2441 34.6987 85.9294 34.656 85.6308 34.656C85.0974 34.656 84.6548 34.7733 84.3028 35.008C83.9614 35.232 83.7054 35.5733 83.5348 36.032C83.3748 36.48 83.2948 37.0453 83.2948 37.728C83.2948 38.3787 83.3801 38.928 83.5508 39.376C83.7214 39.824 83.9721 40.1653 84.3028 40.4C84.6441 40.624 85.0654 40.736 85.5668 40.736C86.0468 40.736 86.4681 40.6827 86.8308 40.576C87.1934 40.4693 87.5348 40.3307 87.8548 40.16V41.632C87.5454 41.8133 87.2094 41.9467 86.8468 42.032C86.4841 42.1173 86.0414 42.16 85.5188 42.16ZM93.2345 33.216C94.3225 33.216 95.1332 33.456 95.6665 33.936C96.1998 34.4053 96.4665 35.1467 96.4665 36.16V42H95.2665L94.9305 40.8H94.8665C94.6212 41.1093 94.3652 41.3653 94.0985 41.568C93.8425 41.7707 93.5438 41.92 93.2025 42.016C92.8718 42.112 92.4665 42.16 91.9865 42.16C91.4745 42.16 91.0105 42.0693 90.5945 41.888C90.1892 41.696 89.8692 41.408 89.6345 41.024C89.3998 40.6293 89.2825 40.1387 89.2825 39.552C89.2825 38.6773 89.6132 38.0107 90.2745 37.552C90.9465 37.0933 91.9652 36.8427 93.3305 36.8L94.8025 36.752V36.272C94.8025 35.632 94.6585 35.184 94.3705 34.928C94.0825 34.672 93.6772 34.544 93.1545 34.544C92.7065 34.544 92.2798 34.608 91.8745 34.736C91.4692 34.864 91.0852 35.0187 90.7225 35.2L90.1785 33.968C90.5838 33.7547 91.0478 33.5787 91.5705 33.44C92.1038 33.2907 92.6585 33.216 93.2345 33.216ZM93.6345 37.888C92.6532 37.9307 91.9705 38.096 91.5865 38.384C91.2132 38.6613 91.0265 39.056 91.0265 39.568C91.0265 40.016 91.1598 40.3413 91.4265 40.544C91.7038 40.7467 92.0505 40.848 92.4665 40.848C93.1385 40.848 93.6932 40.6613 94.1305 40.288C94.5678 39.9147 94.7865 39.3547 94.7865 38.608V37.856L93.6345 37.888ZM102.182 40.784C102.406 40.784 102.635 40.7627 102.87 40.72C103.105 40.6773 103.307 40.6293 103.478 40.576V41.856C103.297 41.9413 103.051 42.0107 102.742 42.064C102.433 42.128 102.123 42.16 101.814 42.16C101.345 42.16 100.913 42.08 100.518 41.92C100.134 41.76 99.8247 41.4827 99.59 41.088C99.3553 40.6933 99.238 40.144 99.238 39.44V34.672H98.038V33.904L99.302 33.264L99.894 31.44H100.934V33.376H103.398V34.672H100.934V39.408C100.934 39.8773 101.046 40.224 101.27 40.448C101.505 40.672 101.809 40.784 102.182 40.784ZM106.899 33.376V42H105.203V33.376H106.899ZM106.067 30.096C106.323 30.096 106.547 30.1707 106.739 30.32C106.931 30.4693 107.027 30.72 107.027 31.072C107.027 31.4133 106.931 31.664 106.739 31.824C106.547 31.9733 106.323 32.048 106.067 32.048C105.79 32.048 105.555 31.9733 105.363 31.824C105.182 31.664 105.091 31.4133 105.091 31.072C105.091 30.72 105.182 30.4693 105.363 30.32C105.555 30.1707 105.79 30.096 106.067 30.096ZM117.162 37.68C117.162 38.3947 117.066 39.0293 116.874 39.584C116.682 40.1387 116.41 40.608 116.058 40.992C115.706 41.376 115.28 41.6693 114.778 41.872C114.277 42.064 113.712 42.16 113.082 42.16C112.506 42.16 111.973 42.064 111.482 41.872C110.992 41.6693 110.565 41.376 110.202 40.992C109.85 40.608 109.573 40.1387 109.37 39.584C109.168 39.0293 109.066 38.3893 109.066 37.664C109.066 36.7147 109.226 35.9093 109.546 35.248C109.877 34.5867 110.346 34.0853 110.954 33.744C111.573 33.392 112.298 33.216 113.13 33.216C113.92 33.216 114.613 33.392 115.21 33.744C115.818 34.0853 116.293 34.5867 116.634 35.248C116.986 35.9093 117.162 36.72 117.162 37.68ZM110.81 37.68C110.81 38.32 110.89 38.8747 111.05 39.344C111.21 39.8027 111.461 40.1547 111.802 40.4C112.144 40.6453 112.581 40.768 113.114 40.768C113.648 40.768 114.085 40.6453 114.426 40.4C114.768 40.1547 115.018 39.8027 115.178 39.344C115.338 38.8747 115.418 38.32 115.418 37.68C115.418 37.0187 115.333 36.464 115.162 36.016C115.002 35.568 114.752 35.2267 114.41 34.992C114.08 34.7467 113.642 34.624 113.098 34.624C112.298 34.624 111.717 34.8907 111.354 35.424C110.992 35.9573 110.81 36.7093 110.81 37.68ZM123.68 33.216C124.683 33.216 125.451 33.4667 125.984 33.968C126.518 34.4693 126.784 35.2747 126.784 36.384V42H125.104V36.624C125.104 35.952 124.96 35.4507 124.672 35.12C124.395 34.7787 123.947 34.608 123.328 34.608C122.454 34.608 121.846 34.8693 121.504 35.392C121.174 35.9147 121.008 36.6667 121.008 37.648V42H119.312V33.376H120.656L120.896 34.528H120.992C121.184 34.2293 121.419 33.984 121.696 33.792C121.974 33.6 122.283 33.456 122.624 33.36C122.966 33.264 123.318 33.216 123.68 33.216ZM135.119 39.568C135.119 40.1333 134.98 40.608 134.703 40.992C134.425 41.376 134.025 41.6693 133.503 41.872C132.98 42.064 132.351 42.16 131.615 42.16C131.007 42.16 130.484 42.112 130.047 42.016C129.62 41.9307 129.225 41.8027 128.863 41.632V40.144C129.247 40.3253 129.689 40.4907 130.191 40.64C130.692 40.7787 131.183 40.848 131.663 40.848C132.303 40.848 132.761 40.7467 133.039 40.544C133.327 40.3413 133.471 40.0693 133.471 39.728C133.471 39.536 133.417 39.3653 133.311 39.216C133.204 39.056 133.001 38.896 132.703 38.736C132.415 38.5653 131.988 38.3733 131.423 38.16C130.879 37.936 130.415 37.7173 130.031 37.504C129.647 37.28 129.353 37.0187 129.151 36.72C128.948 36.4107 128.847 36.016 128.847 35.536C128.847 34.7893 129.145 34.2187 129.743 33.824C130.351 33.4187 131.151 33.216 132.143 33.216C132.665 33.216 133.156 33.2693 133.615 33.376C134.084 33.472 134.537 33.6213 134.975 33.824L134.415 35.12C134.169 35.0027 133.913 34.9067 133.647 34.832C133.391 34.7467 133.129 34.6773 132.863 34.624C132.607 34.5707 132.34 34.544 132.062 34.544C131.551 34.544 131.161 34.624 130.895 34.784C130.628 34.944 130.495 35.168 130.495 35.456C130.495 35.6587 130.553 35.8347 130.671 35.984C130.799 36.1333 131.017 36.2827 131.327 36.432C131.636 36.5813 132.057 36.7627 132.591 36.976C133.124 37.1787 133.577 37.3867 133.951 37.6C134.335 37.8133 134.623 38.0747 134.815 38.384C135.017 38.6933 135.119 39.088 135.119 39.568Z" fill="black" fill-opacity="0.7"/>
<path fill-rule="evenodd" clip-rule="evenodd" d="M259.5 26.75C254.67 26.75 250.75 30.67 250.75 35.5C250.75 40.33 254.67 44.25 259.5 44.25C264.33 44.25 268.25 40.33 268.25 35.5C268.25 30.67 264.33 26.75 259.5 26.75ZM257.75 39.875L253.375 35.5L254.609 34.2662L257.75 37.3987L264.391 30.7575L265.625 32L257.75 39.875Z" fill="#DDE6ED"/>
<line x1="32" y1="59.5" x2="275" y2="59.5" stroke="black" stroke-opacity="0.2"/>
<defs>
<filter id="filter0_d_165_184" x="0" y="8" width="309" height="274" filterUnits="userSpaceOnUse" color-interpolation-filters="sRGB">
<feFlood flood-opacity="0" result="BackgroundImageFix"/>
<feColorMatrix in="SourceAlpha" type="matrix" values="0 0 0 0 0 0 0 0 0 0 0 0 0 0 0 0 0 0 127 0" result="hardAlpha"/>
<feOffset dx="1" dy="2"/>
<feGaussianBlur stdDeviation="2"/>
<feComposite in2="hardAlpha" operator="out"/>
<feColorMatrix type="matrix" values="0 0 0 0 0 0 0 0 0 0 0 0 0 0 0 0 0 0 0.25 0"/>
<feBlend mode="normal" in2="BackgroundImageFix" result="effect1_dropShadow_165_184"/>
<feBlend mode="normal" in="SourceGraphic" in2="effect1_dropShadow_165_184" result="shape"/>
</filter>
</defs>
</svg>
