<svg width="690" height="136" viewBox="0 0 690 136" fill="none" xmlns="http://www.w3.org/2000/svg">
<rect width="690" height="45" rx="5" fill="#EBEBEB"/>
<rect width="485" height="45" rx="5" fill="#1E293B"/>
<path d="M33 16.29L29.175 27H27.825L24 16.29H25.41L27.825 23.16C27.935 23.45 28.03 23.73 28.11 24C28.19 24.27 28.26 24.53 28.32 24.78C28.39 25.02 28.45 25.26 28.5 25.5C28.55 25.26 28.605 25.015 28.665 24.765C28.735 24.515 28.81 24.255 28.89 23.985C28.98 23.715 29.075 23.43 29.175 23.13L31.575 16.29H33ZM40.9662 22.965C40.9662 23.635 40.8762 24.23 40.6962 24.75C40.5262 25.26 40.2762 25.695 39.9462 26.055C39.6262 26.415 39.2312 26.69 38.7612 26.88C38.3012 27.06 37.7862 27.15 37.2162 27.15C36.6862 27.15 36.1962 27.06 35.7462 26.88C35.2962 26.69 34.9062 26.415 34.5762 26.055C34.2462 25.695 33.9862 25.26 33.7962 24.75C33.6162 24.23 33.5262 23.635 33.5262 22.965C33.5262 22.075 33.6762 21.325 33.9762 20.715C34.2762 20.095 34.7062 19.625 35.2662 19.305C35.8262 18.975 36.4912 18.81 37.2612 18.81C37.9912 18.81 38.6312 18.975 39.1812 19.305C39.7412 19.625 40.1762 20.095 40.4862 20.715C40.8062 21.325 40.9662 22.075 40.9662 22.965ZM34.8912 22.965C34.8912 23.595 34.9712 24.145 35.1312 24.615C35.3012 25.075 35.5612 25.43 35.9112 25.68C36.2612 25.93 36.7062 26.055 37.2462 26.055C37.7862 26.055 38.2312 25.93 38.5812 25.68C38.9312 25.43 39.1862 25.075 39.3462 24.615C39.5162 24.145 39.6012 23.595 39.6012 22.965C39.6012 22.325 39.5162 21.78 39.3462 21.33C39.1762 20.88 38.9162 20.535 38.5662 20.295C38.2262 20.045 37.7812 19.92 37.2312 19.92C36.4112 19.92 35.8162 20.19 35.4462 20.73C35.0762 21.27 34.8912 22.015 34.8912 22.965ZM45.7432 26.07C45.9432 26.07 46.1482 26.055 46.3582 26.025C46.5682 25.985 46.7382 25.945 46.8682 25.905V26.91C46.7282 26.98 46.5282 27.035 46.2682 27.075C46.0082 27.125 45.7582 27.15 45.5182 27.15C45.0982 27.15 44.7082 27.08 44.3482 26.94C43.9982 26.79 43.7132 26.535 43.4932 26.175C43.2732 25.815 43.1632 25.31 43.1632 24.66V19.98H42.0232V19.35L43.1782 18.825L43.7032 17.115H44.4832V18.96H46.8082V19.98H44.4832V24.63C44.4832 25.12 44.5982 25.485 44.8282 25.725C45.0682 25.955 45.3732 26.07 45.7432 26.07ZM51.5831 18.81C52.2731 18.81 52.8631 18.96 53.3531 19.26C53.8531 19.56 54.2331 19.985 54.4931 20.535C54.7631 21.075 54.8981 21.71 54.8981 22.44V23.235H49.3931C49.4131 24.145 49.6431 24.84 50.0831 25.32C50.5331 25.79 51.1581 26.025 51.9581 26.025C52.4681 26.025 52.9181 25.98 53.3081 25.89C53.7081 25.79 54.1181 25.65 54.5381 25.47V26.625C54.1281 26.805 53.7231 26.935 53.3231 27.015C52.9231 27.105 52.4481 27.15 51.8981 27.15C51.1381 27.15 50.4631 26.995 49.8731 26.685C49.2931 26.375 48.8381 25.915 48.5081 25.305C48.1881 24.685 48.0281 23.93 48.0281 23.04C48.0281 22.16 48.1731 21.405 48.4631 20.775C48.7631 20.145 49.1781 19.66 49.7081 19.32C50.2481 18.98 50.8731 18.81 51.5831 18.81ZM51.5681 19.89C50.9381 19.89 50.4381 20.095 50.0681 20.505C49.7081 20.905 49.4931 21.465 49.4231 22.185H53.5181C53.5181 21.725 53.4481 21.325 53.3081 20.985C53.1681 20.645 52.9531 20.38 52.6631 20.19C52.3831 19.99 52.0181 19.89 51.5681 19.89ZM64.8914 27H63.6014V19.515C63.6014 19.225 63.6014 18.98 63.6014 18.78C63.6114 18.58 63.6214 18.395 63.6314 18.225C63.6414 18.045 63.6514 17.86 63.6614 17.67C63.5014 17.83 63.3564 17.965 63.2264 18.075C63.0964 18.185 62.9314 18.325 62.7314 18.495L61.5914 19.425L60.9014 18.54L63.7964 16.29H64.8914V27Z" fill="white"/>
<path d="M454.55 22.95C454.55 22.5367 454.577 22.13 454.63 21.73C454.69 21.33 454.79 20.9533 454.93 20.6C455.07 20.24 455.263 19.9233 455.51 19.65C455.757 19.37 456.067 19.1533 456.44 19C456.82 18.84 457.28 18.76 457.82 18.76C457.96 18.76 458.113 18.7667 458.28 18.78C458.453 18.7933 458.593 18.8167 458.7 18.85V19.6C458.58 19.56 458.443 19.53 458.29 19.51C458.143 19.49 457.993 19.48 457.84 19.48C457.38 19.48 456.997 19.5567 456.69 19.71C456.383 19.8633 456.14 20.0733 455.96 20.34C455.787 20.6067 455.66 20.9133 455.58 21.26C455.5 21.6067 455.45 21.9767 455.43 22.37H455.49C455.59 22.21 455.717 22.0667 455.87 21.94C456.023 21.8133 456.207 21.7133 456.42 21.64C456.64 21.5667 456.893 21.53 457.18 21.53C457.593 21.53 457.953 21.6167 458.26 21.79C458.573 21.9567 458.817 22.2033 458.99 22.53C459.163 22.85 459.25 23.24 459.25 23.7C459.25 24.1933 459.157 24.62 458.97 24.98C458.783 25.34 458.52 25.6167 458.18 25.81C457.847 26.0033 457.447 26.1 456.98 26.1C456.64 26.1 456.323 26.0367 456.03 25.91C455.737 25.7833 455.477 25.59 455.25 25.33C455.03 25.07 454.857 24.7433 454.73 24.35C454.61 23.95 454.55 23.4833 454.55 22.95ZM456.97 25.36C457.39 25.36 457.73 25.2267 457.99 24.96C458.25 24.6867 458.38 24.2667 458.38 23.7C458.38 23.2467 458.263 22.8867 458.03 22.62C457.803 22.3533 457.46 22.22 457 22.22C456.687 22.22 456.413 22.2867 456.18 22.42C455.947 22.5467 455.763 22.71 455.63 22.91C455.503 23.11 455.44 23.3167 455.44 23.53C455.44 23.75 455.47 23.9667 455.53 24.18C455.597 24.3933 455.693 24.59 455.82 24.77C455.953 24.95 456.113 25.0933 456.3 25.2C456.493 25.3067 456.717 25.36 456.97 25.36ZM465.243 24.38H464.203V26H463.353V24.38H459.933V23.63L463.293 18.82H464.203V23.59H465.243V24.38ZM463.353 21.34C463.353 21.1667 463.353 21.01 463.353 20.87C463.359 20.7233 463.366 20.5867 463.373 20.46C463.379 20.3333 463.383 20.2133 463.383 20.1C463.389 19.98 463.396 19.8667 463.403 19.76H463.363C463.309 19.8867 463.243 20.0233 463.163 20.17C463.083 20.3167 463.006 20.44 462.933 20.54L460.793 23.59H463.353V21.34ZM467.395 18.76C467.889 18.76 468.262 18.9567 468.515 19.35C468.769 19.7367 468.895 20.2833 468.895 20.99C468.895 21.6967 468.772 22.25 468.525 22.65C468.285 23.0433 467.909 23.24 467.395 23.24C467.082 23.24 466.815 23.15 466.595 22.97C466.375 22.79 466.209 22.5333 466.095 22.2C465.989 21.86 465.935 21.4567 465.935 20.99C465.935 20.2833 466.052 19.7367 466.285 19.35C466.519 18.9567 466.889 18.76 467.395 18.76ZM467.395 19.38C467.142 19.38 466.955 19.5167 466.835 19.79C466.722 20.0567 466.665 20.4567 466.665 20.99C466.665 21.5233 466.722 21.9267 466.835 22.2C466.955 22.4733 467.142 22.61 467.395 22.61C467.655 22.61 467.849 22.4767 467.975 22.21C468.102 21.9367 468.165 21.53 468.165 20.99C468.165 20.4567 468.102 20.0567 467.975 19.79C467.849 19.5167 467.655 19.38 467.395 19.38ZM471.965 18.86L468.005 26H467.235L471.195 18.86H471.965ZM471.765 21.62C472.092 21.62 472.365 21.71 472.585 21.89C472.805 22.0633 472.972 22.3167 473.085 22.65C473.205 22.9767 473.265 23.3767 473.265 23.85C473.265 24.5567 473.142 25.11 472.895 25.51C472.655 25.9033 472.279 26.1 471.765 26.1C471.452 26.1 471.185 26.01 470.965 25.83C470.745 25.65 470.579 25.3933 470.465 25.06C470.359 24.72 470.305 24.3167 470.305 23.85C470.305 23.1433 470.422 22.5967 470.655 22.21C470.889 21.8167 471.259 21.62 471.765 21.62ZM471.765 22.25C471.512 22.25 471.325 22.3833 471.205 22.65C471.092 22.9167 471.035 23.3167 471.035 23.85C471.035 24.39 471.092 24.7967 471.205 25.07C471.325 25.3367 471.512 25.47 471.765 25.47C472.025 25.47 472.219 25.3367 472.345 25.07C472.472 24.8033 472.535 24.3967 472.535 23.85C472.535 23.3167 472.472 22.9167 472.345 22.65C472.219 22.3833 472.025 22.25 471.765 22.25Z" fill="white"/>
<rect y="56" width="690" height="45" rx="5" fill="#EBEBEB"/>
<rect y="56" width="233" height="45" rx="5" fill="#9F9F9F"/>
<path d="M33 72.29L29.175 83H27.825L24 72.29H25.41L27.825 79.16C27.935 79.45 28.03 79.73 28.11 80C28.19 80.27 28.26 80.53 28.32 80.78C28.39 81.02 28.45 81.26 28.5 81.5C28.55 81.26 28.605 81.015 28.665 80.765C28.735 80.515 28.81 80.255 28.89 79.985C28.98 79.715 29.075 79.43 29.175 79.13L31.575 72.29H33ZM40.9662 78.965C40.9662 79.635 40.8762 80.23 40.6962 80.75C40.5262 81.26 40.2762 81.695 39.9462 82.055C39.6262 82.415 39.2312 82.69 38.7612 82.88C38.3012 83.06 37.7862 83.15 37.2162 83.15C36.6862 83.15 36.1962 83.06 35.7462 82.88C35.2962 82.69 34.9062 82.415 34.5762 82.055C34.2462 81.695 33.9862 81.26 33.7962 80.75C33.6162 80.23 33.5262 79.635 33.5262 78.965C33.5262 78.075 33.6762 77.325 33.9762 76.715C34.2762 76.095 34.7062 75.625 35.2662 75.305C35.8262 74.975 36.4912 74.81 37.2612 74.81C37.9912 74.81 38.6312 74.975 39.1812 75.305C39.7412 75.625 40.1762 76.095 40.4862 76.715C40.8062 77.325 40.9662 78.075 40.9662 78.965ZM34.8912 78.965C34.8912 79.595 34.9712 80.145 35.1312 80.615C35.3012 81.075 35.5612 81.43 35.9112 81.68C36.2612 81.93 36.7062 82.055 37.2462 82.055C37.7862 82.055 38.2312 81.93 38.5812 81.68C38.9312 81.43 39.1862 81.075 39.3462 80.615C39.5162 80.145 39.6012 79.595 39.6012 78.965C39.6012 78.325 39.5162 77.78 39.3462 77.33C39.1762 76.88 38.9162 76.535 38.5662 76.295C38.2262 76.045 37.7812 75.92 37.2312 75.92C36.4112 75.92 35.8162 76.19 35.4462 76.73C35.0762 77.27 34.8912 78.015 34.8912 78.965ZM45.7432 82.07C45.9432 82.07 46.1482 82.055 46.3582 82.025C46.5682 81.985 46.7382 81.945 46.8682 81.905V82.91C46.7282 82.98 46.5282 83.035 46.2682 83.075C46.0082 83.125 45.7582 83.15 45.5182 83.15C45.0982 83.15 44.7082 83.08 44.3482 82.94C43.9982 82.79 43.7132 82.535 43.4932 82.175C43.2732 81.815 43.1632 81.31 43.1632 80.66V75.98H42.0232V75.35L43.1782 74.825L43.7032 73.115H44.4832V74.96H46.8082V75.98H44.4832V80.63C44.4832 81.12 44.5982 81.485 44.8282 81.725C45.0682 81.955 45.3732 82.07 45.7432 82.07ZM51.5831 74.81C52.2731 74.81 52.8631 74.96 53.3531 75.26C53.8531 75.56 54.2331 75.985 54.4931 76.535C54.7631 77.075 54.8981 77.71 54.8981 78.44V79.235H49.3931C49.4131 80.145 49.6431 80.84 50.0831 81.32C50.5331 81.79 51.1581 82.025 51.9581 82.025C52.4681 82.025 52.9181 81.98 53.3081 81.89C53.7081 81.79 54.1181 81.65 54.5381 81.47V82.625C54.1281 82.805 53.7231 82.935 53.3231 83.015C52.9231 83.105 52.4481 83.15 51.8981 83.15C51.1381 83.15 50.4631 82.995 49.8731 82.685C49.2931 82.375 48.8381 81.915 48.5081 81.305C48.1881 80.685 48.0281 79.93 48.0281 79.04C48.0281 78.16 48.1731 77.405 48.4631 76.775C48.7631 76.145 49.1781 75.66 49.7081 75.32C50.2481 74.98 50.8731 74.81 51.5831 74.81ZM51.5681 75.89C50.9381 75.89 50.4381 76.095 50.0681 76.505C49.7081 76.905 49.4931 77.465 49.4231 78.185H53.5181C53.5181 77.725 53.4481 77.325 53.3081 76.985C53.1681 76.645 52.9531 76.38 52.6631 76.19C52.3831 75.99 52.0181 75.89 51.5681 75.89ZM67.3664 83H60.2864V81.905L63.0914 79.07C63.6314 78.53 64.0864 78.05 64.4564 77.63C64.8264 77.21 65.1064 76.8 65.2964 76.4C65.4864 75.99 65.5814 75.545 65.5814 75.065C65.5814 74.475 65.4064 74.03 65.0564 73.73C64.7064 73.42 64.2514 73.265 63.6914 73.265C63.1714 73.265 62.7114 73.355 62.3114 73.535C61.9214 73.715 61.5214 73.965 61.1114 74.285L60.4064 73.4C60.6864 73.16 60.9914 72.945 61.3214 72.755C61.6614 72.565 62.0264 72.415 62.4164 72.305C62.8164 72.195 63.2414 72.14 63.6914 72.14C64.3614 72.14 64.9364 72.255 65.4164 72.485C65.8964 72.715 66.2664 73.045 66.5264 73.475C66.7964 73.895 66.9314 74.4 66.9314 74.99C66.9314 75.41 66.8664 75.81 66.7364 76.19C66.6064 76.56 66.4214 76.925 66.1814 77.285C65.9414 77.645 65.6514 78.01 65.3114 78.38C64.9714 78.75 64.5964 79.135 64.1864 79.535L61.9514 81.74V81.8H67.3664V83Z" fill="white"/>
<path d="M207.93 76.53C207.93 76.85 207.87 77.1267 207.75 77.36C207.63 77.5933 207.457 77.7833 207.23 77.93C207.01 78.0767 206.75 78.18 206.45 78.24V78.28C207.023 78.3467 207.45 78.5267 207.73 78.82C208.01 79.1133 208.15 79.4967 208.15 79.97C208.15 80.3833 208.053 80.7533 207.86 81.08C207.667 81.4 207.367 81.65 206.96 81.83C206.56 82.01 206.043 82.1 205.41 82.1C205.037 82.1 204.69 82.07 204.37 82.01C204.05 81.9567 203.743 81.8567 203.45 81.71V80.89C203.75 81.0367 204.073 81.1533 204.42 81.24C204.767 81.32 205.1 81.36 205.42 81.36C206.06 81.36 206.52 81.2367 206.8 80.99C207.087 80.7367 207.23 80.39 207.23 79.95C207.23 79.65 207.15 79.41 206.99 79.23C206.837 79.0433 206.61 78.9067 206.31 78.82C206.01 78.7333 205.65 78.69 205.23 78.69H204.54V77.94H205.24C205.633 77.94 205.96 77.8833 206.22 77.77C206.487 77.6567 206.687 77.5 206.82 77.3C206.96 77.0933 207.03 76.8567 207.03 76.59C207.03 76.2433 206.913 75.9767 206.68 75.79C206.447 75.5967 206.13 75.5 205.73 75.5C205.477 75.5 205.247 75.5267 205.04 75.58C204.833 75.6267 204.64 75.6967 204.46 75.79C204.287 75.8767 204.11 75.98 203.93 76.1L203.49 75.5C203.663 75.3667 203.86 75.2433 204.08 75.13C204.307 75.0167 204.557 74.9267 204.83 74.86C205.103 74.7933 205.4 74.76 205.72 74.76C206.467 74.76 207.02 74.9267 207.38 75.26C207.747 75.5933 207.93 76.0167 207.93 76.53ZM209.273 78.95C209.273 78.5367 209.299 78.13 209.353 77.73C209.413 77.33 209.513 76.9533 209.653 76.6C209.793 76.24 209.986 75.9233 210.233 75.65C210.479 75.37 210.789 75.1533 211.163 75C211.543 74.84 212.003 74.76 212.543 74.76C212.683 74.76 212.836 74.7667 213.003 74.78C213.176 74.7933 213.316 74.8167 213.423 74.85V75.6C213.303 75.56 213.166 75.53 213.013 75.51C212.866 75.49 212.716 75.48 212.563 75.48C212.103 75.48 211.719 75.5567 211.413 75.71C211.106 75.8633 210.863 76.0733 210.683 76.34C210.509 76.6067 210.383 76.9133 210.303 77.26C210.223 77.6067 210.173 77.9767 210.153 78.37H210.213C210.313 78.21 210.439 78.0667 210.593 77.94C210.746 77.8133 210.929 77.7133 211.143 77.64C211.363 77.5667 211.616 77.53 211.903 77.53C212.316 77.53 212.676 77.6167 212.983 77.79C213.296 77.9567 213.539 78.2033 213.713 78.53C213.886 78.85 213.973 79.24 213.973 79.7C213.973 80.1933 213.879 80.62 213.693 80.98C213.506 81.34 213.243 81.6167 212.903 81.81C212.569 82.0033 212.169 82.1 211.703 82.1C211.363 82.1 211.046 82.0367 210.753 81.91C210.459 81.7833 210.199 81.59 209.973 81.33C209.753 81.07 209.579 80.7433 209.453 80.35C209.333 79.95 209.273 79.4833 209.273 78.95ZM211.693 81.36C212.113 81.36 212.453 81.2267 212.713 80.96C212.973 80.6867 213.103 80.2667 213.103 79.7C213.103 79.2467 212.986 78.8867 212.753 78.62C212.526 78.3533 212.183 78.22 211.723 78.22C211.409 78.22 211.136 78.2867 210.903 78.42C210.669 78.5467 210.486 78.71 210.353 78.91C210.226 79.11 210.163 79.3167 210.163 79.53C210.163 79.75 210.193 79.9667 210.253 80.18C210.319 80.3933 210.416 80.59 210.543 80.77C210.676 80.95 210.836 81.0933 211.023 81.2C211.216 81.3067 211.439 81.36 211.693 81.36ZM216.395 74.76C216.889 74.76 217.262 74.9567 217.515 75.35C217.769 75.7367 217.895 76.2833 217.895 76.99C217.895 77.6967 217.772 78.25 217.525 78.65C217.285 79.0433 216.909 79.24 216.395 79.24C216.082 79.24 215.815 79.15 215.595 78.97C215.375 78.79 215.209 78.5333 215.095 78.2C214.989 77.86 214.935 77.4567 214.935 76.99C214.935 76.2833 215.052 75.7367 215.285 75.35C215.519 74.9567 215.889 74.76 216.395 74.76ZM216.395 75.38C216.142 75.38 215.955 75.5167 215.835 75.79C215.722 76.0567 215.665 76.4567 215.665 76.99C215.665 77.5233 215.722 77.9267 215.835 78.2C215.955 78.4733 216.142 78.61 216.395 78.61C216.655 78.61 216.849 78.4767 216.975 78.21C217.102 77.9367 217.165 77.53 217.165 76.99C217.165 76.4567 217.102 76.0567 216.975 75.79C216.849 75.5167 216.655 75.38 216.395 75.38ZM220.965 74.86L217.005 82H216.235L220.195 74.86H220.965ZM220.765 77.62C221.092 77.62 221.365 77.71 221.585 77.89C221.805 78.0633 221.972 78.3167 222.085 78.65C222.205 78.9767 222.265 79.3767 222.265 79.85C222.265 80.5567 222.142 81.11 221.895 81.51C221.655 81.9033 221.279 82.1 220.765 82.1C220.452 82.1 220.185 82.01 219.965 81.83C219.745 81.65 219.579 81.3933 219.465 81.06C219.359 80.72 219.305 80.3167 219.305 79.85C219.305 79.1433 219.422 78.5967 219.655 78.21C219.889 77.8167 220.259 77.62 220.765 77.62ZM220.765 78.25C220.512 78.25 220.325 78.3833 220.205 78.65C220.092 78.9167 220.035 79.3167 220.035 79.85C220.035 80.39 220.092 80.7967 220.205 81.07C220.325 81.3367 220.512 81.47 220.765 81.47C221.025 81.47 221.219 81.3367 221.345 81.07C221.472 80.8033 221.535 80.3967 221.535 79.85C221.535 79.3167 221.472 78.9167 221.345 78.65C221.219 78.3833 221.025 78.25 220.765 78.25Z" fill="white"/>
<path d="M32.325 128H31.035V120.515C31.035 120.225 31.035 119.98 31.035 119.78C31.045 119.58 31.055 119.395 31.065 119.225C31.075 119.045 31.085 118.86 31.095 118.67C30.935 118.83 30.79 118.965 30.66 119.075C30.53 119.185 30.365 119.325 30.165 119.495L29.025 120.425L28.335 119.54L31.23 117.29H32.325V128ZM38.464 126.425C38.374 126.775 38.259 127.155 38.119 127.565C37.979 127.975 37.824 128.38 37.654 128.78C37.494 129.19 37.334 129.575 37.174 129.935H36.199C36.299 129.555 36.394 129.145 36.484 128.705C36.584 128.275 36.674 127.85 36.754 127.43C36.834 127 36.899 126.61 36.949 126.26H38.359L38.464 126.425ZM44.9227 128H43.6327V120.515C43.6327 120.225 43.6327 119.98 43.6327 119.78C43.6427 119.58 43.6527 119.395 43.6627 119.225C43.6727 119.045 43.6827 118.86 43.6927 118.67C43.5327 118.83 43.3877 118.965 43.2577 119.075C43.1277 119.185 42.9627 119.325 42.7627 119.495L41.6227 120.425L40.9327 119.54L43.8277 117.29H44.9227V128ZM53.5066 128H52.2166V120.515C52.2166 120.225 52.2166 119.98 52.2166 119.78C52.2266 119.58 52.2366 119.395 52.2466 119.225C52.2566 119.045 52.2666 118.86 52.2766 118.67C52.1166 118.83 51.9716 118.965 51.8416 119.075C51.7116 119.185 51.5466 119.325 51.3466 119.495L50.2066 120.425L49.5166 119.54L52.4116 117.29H53.5066V128ZM62.0906 128H60.8006V120.515C60.8006 120.225 60.8006 119.98 60.8006 119.78C60.8106 119.58 60.8206 119.395 60.8306 119.225C60.8406 119.045 60.8506 118.86 60.8606 118.67C60.7006 118.83 60.5556 118.965 60.4256 119.075C60.2956 119.185 60.1306 119.325 59.9306 119.495L58.7906 120.425L58.1006 119.54L60.9956 117.29H62.0906V128Z" fill="black"/>
<path d="M9 124L11 126L15 122" stroke="black" stroke-width="2" stroke-linecap="round" stroke-linejoin="round"/>
<path d="M22 131H2M5 119C5 117.9 5.9 117 7 117H17C17.5304 117 18.0391 117.211 18.4142 117.586C18.7893 117.961 19 118.47 19 119V131H5V119Z" stroke="black" stroke-width="2" stroke-linecap="round" stroke-linejoin="round"/>
</svg>
