<svg width="20" height="23" viewBox="0 0 20 23" fill="none" xmlns="http://www.w3.org/2000/svg">
<path d="M7.83333 20.6666H12.1667C12.1667 21.8583 11.1917 22.8333 10 22.8333C8.80833 22.8333 7.83333 21.8583 7.83333 20.6666ZM19.75 18.4999V19.5833H0.25V18.4999L2.41667 16.3333V9.83325C2.41667 6.47492 4.58333 3.54992 7.83333 2.57492V2.24992C7.83333 1.05825 8.80833 0.083252 10 0.083252C11.1917 0.083252 12.1667 1.05825 12.1667 2.24992V2.57492C15.4167 3.54992 17.5833 6.47492 17.5833 9.83325V16.3333L19.75 18.4999ZM15.4167 9.83325C15.4167 6.79992 13.0333 4.41659 10 4.41659C6.96667 4.41659 4.58333 6.79992 4.58333 9.83325V17.4166H15.4167V9.83325Z" fill="black"/>
</svg>
