<svg width="209" height="37" viewBox="0 0 209 37" fill="none" xmlns="http://www.w3.org/2000/svg">
<path d="M30.046 29H12.908C11.0587 29 9.38667 28.658 7.892 27.974C6.39733 27.29 5.10533 26.34 4.016 25.124C2.952 23.908 2.12867 22.502 1.546 20.906C0.963333 19.2847 0.672 17.5493 0.672 15.7C0.672 13.876 0.963333 12.166 1.546 10.57C2.12867 8.94867 2.952 7.53 4.016 6.314C5.10533 5.07267 6.39733 4.11 7.892 3.426C9.38667 2.742 11.0587 2.4 12.908 2.4H30.046V6.2H12.908C11.16 6.2 9.65267 6.63067 8.386 7.492C7.14467 8.328 6.182 9.468 5.498 10.912C4.814 12.356 4.472 13.952 4.472 15.7C4.472 17.448 4.814 19.044 5.498 20.488C6.182 21.9067 7.14467 23.0467 8.386 23.908C9.65267 24.7693 11.16 25.2 12.908 25.2H30.046V29ZM59.0314 18.55C59.0314 19.994 58.7654 21.3493 58.2334 22.616C57.7014 23.8573 56.9541 24.9593 55.9914 25.922C55.0541 26.8847 53.9521 27.6447 52.6854 28.202C51.4441 28.734 50.1014 29 48.6574 29H42.8054C41.3614 29 40.0061 28.734 38.7394 28.202C37.4981 27.6447 36.3961 26.8847 35.4334 25.922C34.4961 24.9593 33.7614 23.8573 33.2294 22.616C32.6974 21.3493 32.4314 19.994 32.4314 18.55C32.4314 17.106 32.6974 15.7633 33.2294 14.522C33.7614 13.2553 34.4961 12.1407 35.4334 11.178C36.3961 10.2153 37.4981 9.468 38.7394 8.936C40.0061 8.37867 41.3614 8.1 42.8054 8.1H48.6574C50.1014 8.1 51.4441 8.37867 52.6854 8.936C53.9521 9.468 55.0541 10.2153 55.9914 11.178C56.9541 12.1407 57.7014 13.2553 58.2334 14.522C58.7654 15.7633 59.0314 17.106 59.0314 18.55ZM55.2314 18.55C55.2314 17.334 54.9401 16.232 54.3574 15.244C53.7747 14.2307 52.9767 13.42 51.9634 12.812C50.9754 12.204 49.8734 11.9 48.6574 11.9H42.8054C41.5894 11.9 40.4874 12.204 39.4994 12.812C38.5114 13.42 37.7134 14.2307 37.1054 15.244C36.5227 16.232 36.2314 17.334 36.2314 18.55C36.2314 19.766 36.5227 20.8807 37.1054 21.894C37.7134 22.882 38.5114 23.68 39.4994 24.288C40.4874 24.896 41.5894 25.2 42.8054 25.2H48.6574C49.8734 25.2 50.9754 24.896 51.9634 24.288C52.9767 23.68 53.7747 22.882 54.3574 21.894C54.9401 20.8807 55.2314 19.766 55.2314 18.55ZM86.4831 29H82.6831V11.9H72.2331C71.0171 11.9 69.9151 12.204 68.9271 12.812C67.9391 13.3947 67.1411 14.1927 66.5331 15.206C65.9505 16.2193 65.6591 17.334 65.6591 18.55C65.6591 19.766 65.9505 20.8807 66.5331 21.894C67.1411 22.882 67.9391 23.68 68.9271 24.288C69.9151 24.8707 71.0171 25.1747 72.2331 25.2H80.7831V29H72.2331C70.7891 29 69.4338 28.734 68.1671 28.202C66.9258 27.6447 65.8238 26.8847 64.8611 25.922C63.9238 24.9593 63.1891 23.8573 62.6571 22.616C62.1251 21.3493 61.8591 19.994 61.8591 18.55C61.8591 17.106 62.1251 15.7633 62.6571 14.522C63.1891 13.2553 63.9238 12.1407 64.8611 11.178C65.8238 10.2153 66.9258 9.468 68.1671 8.936C69.4338 8.37867 70.7891 8.1 72.2331 8.1H82.6831V0.499998H86.4831V29ZM116.269 14.75C116.269 15.966 115.965 17.0807 115.357 18.094C114.774 19.1073 113.976 19.918 112.963 20.526C111.975 21.1087 110.86 21.4 109.619 21.4H95.0649C95.5969 22.5147 96.3822 23.4267 97.4209 24.136C98.4849 24.8453 99.6756 25.2 100.993 25.2H113.419V29H100.993C99.5489 29 98.1936 28.734 96.9269 28.202C95.6856 27.6447 94.5836 26.8847 93.6209 25.922C92.6836 24.9593 91.9489 23.8573 91.4169 22.616C90.8849 21.3493 90.6189 19.994 90.6189 18.55C90.6189 17.106 90.8849 15.7633 91.4169 14.522C91.9489 13.2553 92.6836 12.1407 93.6209 11.178C94.5836 10.2153 95.6856 9.468 96.9269 8.936C98.1936 8.37867 99.5489 8.1 100.993 8.1H109.619C110.86 8.1 111.975 8.404 112.963 9.012C113.976 9.59467 114.774 10.3927 115.357 11.406C115.965 12.394 116.269 13.5087 116.269 14.75ZM109.619 17.6C110.404 17.6 111.076 17.3213 111.633 16.764C112.19 16.2067 112.469 15.5353 112.469 14.75C112.469 13.9647 112.19 13.2933 111.633 12.736C111.076 12.1787 110.404 11.9 109.619 11.9H100.993C99.8782 11.9 98.8522 12.1533 97.9149 12.66C97.0029 13.1667 96.2429 13.8507 95.6349 14.712C95.0269 15.5733 94.6469 16.536 94.4949 17.6H109.619ZM151.164 11.9C151.164 13.648 150.733 15.244 149.872 16.688C149.036 18.1067 147.896 19.2467 146.452 20.108C145.008 20.9693 143.412 21.4 141.664 21.4H126.388V17.638H141.664C142.728 17.638 143.69 17.3847 144.552 16.878C145.413 16.346 146.097 15.6493 146.604 14.788C147.11 13.9013 147.364 12.9387 147.364 11.9C147.364 10.836 147.11 9.87333 146.604 9.012C146.097 8.15067 145.413 7.46667 144.552 6.96C143.69 6.45333 142.728 6.2 141.664 6.2H124.26V29H120.46V2.4H141.664C143.412 2.4 145.008 2.83067 146.452 3.692C147.896 4.528 149.036 5.668 149.872 7.112C150.733 8.556 151.164 10.152 151.164 11.9ZM180.119 18.55C180.119 19.994 179.853 21.3493 179.321 22.616C178.789 23.8573 178.042 24.9593 177.079 25.922C176.142 26.8847 175.04 27.6447 173.773 28.202C172.532 28.734 171.189 29 169.745 29H163.893C162.449 29 161.094 28.734 159.827 28.202C158.586 27.6447 157.484 26.8847 156.521 25.922C155.584 24.9593 154.849 23.8573 154.317 22.616C153.785 21.3493 153.519 19.994 153.519 18.55C153.519 17.106 153.785 15.7633 154.317 14.522C154.849 13.2553 155.584 12.1407 156.521 11.178C157.484 10.2153 158.586 9.468 159.827 8.936C161.094 8.37867 162.449 8.1 163.893 8.1H169.745C171.189 8.1 172.532 8.37867 173.773 8.936C175.04 9.468 176.142 10.2153 177.079 11.178C178.042 12.1407 178.789 13.2553 179.321 14.522C179.853 15.7633 180.119 17.106 180.119 18.55ZM176.319 18.55C176.319 17.334 176.028 16.232 175.445 15.244C174.863 14.2307 174.065 13.42 173.051 12.812C172.063 12.204 170.961 11.9 169.745 11.9H163.893C162.677 11.9 161.575 12.204 160.587 12.812C159.599 13.42 158.801 14.2307 158.193 15.244C157.611 16.232 157.319 17.334 157.319 18.55C157.319 19.766 157.611 20.8807 158.193 21.894C158.801 22.882 159.599 23.68 160.587 24.288C161.575 24.896 162.677 25.2 163.893 25.2H169.745C170.961 25.2 172.063 24.896 173.051 24.288C174.065 23.68 174.863 22.882 175.445 21.894C176.028 20.8807 176.319 19.766 176.319 18.55ZM208.901 18.55C208.901 19.994 208.635 21.3493 208.103 22.616C207.571 23.8573 206.824 24.9593 205.861 25.922C204.924 26.8847 203.822 27.6447 202.555 28.202C201.314 28.734 199.971 29 198.527 29H189.977V25.2H198.527C199.743 25.1747 200.845 24.8707 201.833 24.288C202.846 23.68 203.644 22.882 204.227 21.894C204.81 20.8807 205.101 19.766 205.101 18.55C205.101 17.334 204.81 16.2193 204.227 15.206C203.644 14.1927 202.846 13.3947 201.833 12.812C200.845 12.204 199.743 11.9 198.527 11.9H188.077V36.6H184.277V8.1H198.527C199.971 8.1 201.314 8.37867 202.555 8.936C203.822 9.468 204.924 10.2153 205.861 11.178C206.824 12.1407 207.571 13.2553 208.103 14.522C208.635 15.7633 208.901 17.106 208.901 18.55Z" fill="white"/>
</svg>
